#!OML:ASF H:\Pregnant\Project 1\Capture day 1\Session 1\femalepreg.ASF
:FULLY-SPECIFIED
:DEGREES
752
root 21.0324 15.6356 -18.0543 -163.896 165.903 -182.001
lowerback -11.2977 3.59546 9.78321
upperback -3.68172 3.60625 3.25351
thorax 2.82388 1.80964 -1.56794
lowerneck -17.8367 -2.91017 -1.68313
upperneck 28.0266 -2.9316 -2.08376
head 12.2017 -1.72531 -0.947572
rclavicle -8.64713e-015 -9.54166e-015
rhumerus -27.6422 7.5254 -84.5877
rradius 24.442
rwrist -3.04809
rhand -16.5058 -13.7754
rfingers 7.12502
rthumb 9.71219 -43.5315
lclavicle -8.64713e-015 -9.54166e-015
lhumerus -42.5789 -2.71834 83.9878
lradius 34.6828
lwrist 44.2786
lhand -15.5949 -9.19319
lfingers 7.12502
lthumb 10.5909 20.5199
rfemur -17.8568 19.2582 29.902
rtibia 30.6269
rfoot -20.3475 -0.972172
rtoes -0.0370358
lfemur -51.5079 -12.488 -11.9566
ltibia 27.0744
lfoot -5.33831 -0.911732
ltoes -27.2084
753
root 21.0729 15.6321 -17.9526 -163.721 166.344 -181.991
lowerback -11.2626 3.5302 9.66814
upperback -3.75063 3.54404 3.20213
thorax 2.72288 1.77322 -1.57296
lowerneck -17.8013 -2.78116 -1.67022
upperneck 28.0215 -2.77428 -2.01391
head 12.1941 -1.64547 -0.898401
rclavicle 5.82439e-014 -1.74931e-014
rhumerus -27.7198 7.70422 -84.8424
rradius 24.4685
rwrist -3.03186
rhand -16.5208 -13.7468
rfingers 7.12502
rthumb 9.6977 -43.5036
lclavicle 5.82439e-014 -1.74931e-014
lhumerus -42.7075 -2.91757 83.896
lradius 35.191
lwrist 44.4704
lhand -16.0477 -9.27056
lfingers 7.12502
lthumb 10.1541 20.4644
rfemur -17.4722 19.4423 29.8124
rtibia 30.3662
rfoot -20.4299 -0.776638
rtoes -0.486315
lfemur -51.5025 -12.6559 -11.7719
ltibia 25.4009
lfoot -5.38828 -1.32342
ltoes -27.2448
754
root 21.1129 15.628 -17.8501 -163.546 166.772 -181.997
lowerback -11.2162 3.45782 9.56167
upperback -3.83824 3.47439 3.14987
thorax 2.59582 1.73185 -1.58575
lowerneck -17.6925 -2.66445 -1.70489
upperneck 27.9861 -2.63624 -1.89672
head 12.1608 -1.57293 -0.824615
rclavicle -1.23246e-014 7.95139e-015
rhumerus -27.8496 7.88331 -85.1108
rradius 24.5277
rwrist -3.0352
rhand -16.5239 -13.726
rfingers 7.12502
rthumb 9.69468 -43.4829
lclavicle -1.23246e-014 7.95139e-015
lhumerus -42.8252 -3.09961 83.7866
lradius 35.5989
lwrist 44.584
lhand -16.4111 -9.40513
lfingers 7.12502
lthumb 9.80355 20.3467
rfemur -17.0886 19.6371 29.736
rtibia 30.1051
rfoot -20.4854 -0.547408
rtoes -0.799865
lfemur -51.5236 -12.7554 -11.6505
ltibia 23.9122
lfoot -5.48544 -1.73067
ltoes -27.3794
755
root 21.1525 15.6227 -17.7464 -163.378 167.185 -182.019
lowerback -11.1514 3.37445 9.46275
upperback -3.9505 3.3935 3.10165
thorax 2.43182 1.68316 -1.60159
lowerneck -17.5181 -2.54923 -1.78328
upperneck 27.9359 -2.50104 -1.73816
head 12.1096 -1.50073 -0.72725
rclavicle 3.72721e-014 -7.95139e-015
rhumerus -28.0365 8.1052 -85.4006
rradius 24.6025
rwrist -3.0967
rhand -16.5035 -13.7053
rfingers 7.12502
rthumb 9.71437 -43.4613
lclavicle 3.72721e-014 -7.95139e-015
lhumerus -42.945 -3.25944 83.6584
lradius 35.8936
lwrist 44.641
lhand -16.5928 -9.57469
lfingers 7.12502
lthumb 9.62823 20.1853
rfemur -16.6948 19.8363 29.6821
rtibia 29.8402
rfoot -20.5157 -0.318341
rtoes -1.08179
lfemur -51.5704 -12.8199 -11.5691
ltibia 22.6214
lfoot -5.64189 -2.0744
ltoes -27.5925
756
root 21.1918 15.6162 -17.641 -163.22 167.59 -182.053
lowerback -11.1813 3.30742 9.33541
upperback -4.0055 3.3195 3.06736
thorax 2.37894 1.64329 -1.57883
lowerneck -17.3397 -2.45686 -1.88918
upperneck 27.8296 -2.39673 -1.56091
head 12.0358 -1.44271 -0.622575
rclavicle 1.63003e-014 -1.59028e-014
rhumerus -28.1655 8.29397 -85.6362
rradius 24.6932
rwrist -3.19248
rhand -16.4678 -13.7002
rfingers 7.12502
rthumb 9.74882 -43.4546
lclavicle 1.63003e-014 -1.59028e-014
lhumerus -42.911 -3.41274 83.5534
lradius 36.0391
lwrist 44.6507
lhand -16.5921 -9.76821
lfingers 7.12502
lthumb 9.6289 19.9917
rfemur -16.2808 20.052 29.6466
rtibia 29.5728
rfoot -20.4952 -0.0551663
rtoes -1.06313
lfemur -51.6293 -12.839 -11.5499
ltibia 21.5371
lfoot -5.85521 -2.35485
ltoes -27.8118
